<?xml version="1.0" ?><svg height="20" version="1.1" viewBox="0 0 20 20" width="20" xmlns="http://www.w3.org/2000/svg"><g id="layer1"><path d="M 3.1464844 6 L 0.029296875 14.833984 L 0.97070312 15.166016 L 2.0878906 12 L 5.9121094 12 L 7.0292969 15.166016 L 7.9707031 14.833984 L 4.8535156 6 L 3.1464844 6 z M 13 6 L 13 7 L 18 7 L 18 7.3183594 L 13 13.318359 L 13 15 L 19 15 L 19 14 L 14 14 L 14 13.681641 L 19 7.6816406 L 19 6 L 13 6 z M 3.8535156 7 L 4.1464844 7 L 5.5585938 11 L 2.4414062 11 L 3.8535156 7 z M 9 10 L 9 11 L 11 11 L 11 10 L 9 10 z " style="fill:#222222; fill-opacity:1; stroke:none; stroke-width:0px;"/></g></svg>