<svg height='100px' width='100px'  fill="#000000" xmlns:x="http://ns.adobe.com/Extensibility/1.0/" xmlns:i="http://ns.adobe.com/AdobeIllustrator/10.0/" xmlns:graph="http://ns.adobe.com/Graphs/1.0/" xmlns="http://www.w3.org/2000/svg" xmlns:xlink="http://www.w3.org/1999/xlink" version="1.1" x="0px" y="0px" viewBox="0 0 90 90" enable-background="new 0 0 90 90" xml:space="preserve"><g><g i:extraneous="self"><path fill="#000000" d="M56.699,54.435h-1.506c0.605-0.841,1.264-1.839,1.995-3.053c2.877-4.772,3.346-7.811,3.06-11.689    c-0.319-4.315-2.831-7.361-3.119-8.607c-0.545-2.366,0.332-4.639,0.696-6.095c0.364-1.457,1.112-3.696,0-6.644    c-1.41-3.743-5.916-5.643-7.007-6.462c-1.092-0.819-2.275-3.094-2.64-4.459s-0.979-3.572-2.866-5.46    c-1.569-1.571-4.178-2.649-5.779-1.456c-2.103,1.566-1.9,4.428-0.558,6.996c0.822,1.573,2.284,2.749,3.288,4.289    c2.411,3.697-2.098,4.176-4.073,5.813c-3.014,2.498-1.57,6.291,0.341,7.383c2.259,1.292,4.186,1.911,4.641,4.732    c0.455,2.821-1.82,3.549-4.551,5.734c-2.73,2.185-4.61,4.333-6.552,7.736c-2.485,4.353-2.868,9.584-0.131,13.199l-3.625,5.203V90    h33.371V61.594L56.699,54.435z M33.075,57.63c0.531,0.481,1.134,0.92,1.816,1.306c4.941,2.789,13.471,0.354,15.165-0.179    c1.228-0.389,2.391-1.03,3.844-2.684h1.942l3.457,4.976H30.7L33.075,57.63z M60.047,88.363H29.953V62.687h30.094V88.363z"></path></g></g></svg>