<?xml version="1.0" ?><svg height="20" version="1.1" viewBox="0 0 20 20" width="20" xmlns="http://www.w3.org/2000/svg"><g id="layer1"><path d="M 1 6 L 1 7 L 6 7 L 6 7.3183594 L 1 13.318359 L 1 15 L 7 15 L 7 14 L 2 14 L 2 13.681641 L 7 7.6816406 L 7 6 L 1 6 z M 15.146484 6 L 12.029297 14.833984 L 12.970703 15.166016 L 14.087891 12 L 17.912109 12 L 19.029297 15.166016 L 19.970703 14.833984 L 16.853516 6 L 15.146484 6 z M 15.853516 7 L 16.146484 7 L 17.558594 11 L 14.441406 11 L 15.853516 7 z M 9 10 L 9 11 L 11 11 L 11 10 L 9 10 z " style="fill:#222222; fill-opacity:1; stroke:none; stroke-width:0px;"/></g></svg>